<svg width="16" height="16" viewBox="0 0 16 16" fill="none" xmlns="http://www.w3.org/2000/svg">
<path d="M10.052 13.273C9.98406 13.273 9.89674 13.3119 9.85794 13.3507C9.36313 13.8358 8.87803 14.3306 8.38323 14.8254C8.12127 15.0873 7.91753 15.0873 7.65558 14.8254C7.17048 14.3403 6.68538 13.8552 6.20028 13.3701C6.13236 13.2924 6.05475 13.2633 5.94802 13.2633H5.72488H2.50381C1.67914 13.2633 1 12.5939 1 11.7692V2.50381C1 1.67914 1.67914 1 2.50381 1H13.4962C14.3209 1 15 1.67914 15 2.50381V11.7692C15 12.5939 14.3209 13.273 13.4962 13.273H10.3042H10.052Z" stroke="#29A74A" stroke-width="0.8" stroke-miterlimit="10"/>
<path d="M7.86896 4.19196C7.94658 4.02703 8.063 4.02703 8.13092 4.19196L8.83917 5.80249C8.91678 5.96743 9.12052 6.11296 9.29516 6.13236L11.0512 6.307C11.2356 6.3264 11.2647 6.44283 11.1288 6.55925L9.81907 7.7429C9.68324 7.85932 9.60562 8.10187 9.64443 8.28621L10.0228 10.0035C10.0616 10.1781 9.9646 10.246 9.80937 10.1587L8.28615 9.27581C8.13092 9.1885 7.87867 9.1885 7.72343 9.27581L6.20022 10.1587C6.04499 10.246 5.94797 10.1781 5.98677 10.0035L6.35545 8.27651C6.39426 8.10187 6.31664 7.85932 6.18081 7.73319L4.86134 6.56895C4.72551 6.45253 4.76432 6.3361 4.93896 6.3167L6.69502 6.14206C6.87936 6.12266 7.0831 5.97713 7.15102 5.8122L7.86896 4.19196Z" stroke="#29A74A" stroke-width="0.5" stroke-miterlimit="10"/>
</svg>
